<?xml version="1.0" encoding="utf-8"?>
<!-- Generator: Adobe Illustrator 21.1.0, SVG Export Plug-In . SVG Version: 6.00 Build 0)  -->
<svg version="1.1" id="Layer_1" xmlns="http://www.w3.org/2000/svg" xmlns:xlink="http://www.w3.org/1999/xlink" x="0px" y="0px"
	 viewBox="0 0 89 89" style="enable-background:new 0 0 89 89;" xml:space="preserve">
<style type="text/css">
	.st0{fill:#FFFFFF;}
</style>
<title>Artboard 41</title>
<g>
	<path class="st0" d="M27.5,67h34c3,0,5.5-2.5,5.5-5.5v-34c0-3-2.5-5.5-5.5-5.5h-34c-3,0-5.5,2.5-5.5,5.5v34
		C22,64.5,24.5,67,27.5,67z M23,27.5c0-2.5,2-4.5,4.5-4.5h34c2.5,0,4.5,2,4.5,4.5v34c0,2.5-2,4.5-4.5,4.5h-34C25,66,23,64,23,61.5
		V27.5z"/>
	<path class="st0" d="M28,61.5h33c0.3,0,0.5-0.2,0.5-0.5c0,0,0,0,0,0V28c0-0.3-0.2-0.5-0.5-0.5c0,0,0,0,0,0H30.5
		c-0.1,0-0.3,0.1-0.4,0.1l-2.5,2.5c-0.1,0.1-0.1,0.2-0.1,0.4V61C27.5,61.3,27.7,61.5,28,61.5C28,61.5,28,61.5,28,61.5z M28.5,30.7
		l2.2-2.2h29.8v32h-32V30.7z"/>
	<path class="st0" d="M49.5,39h-10c-0.3,0-0.5,0.2-0.5,0.5c0,0,0,0,0,0v10c0,0.3,0.2,0.5,0.5,0.5c0,0,0,0,0,0h10
		c0.3,0,0.5-0.2,0.5-0.5c0,0,0,0,0,0v-10C50,39.2,49.8,39,49.5,39C49.5,39,49.5,39,49.5,39z M49,49h-9v-9h9V49z"/>
	<path class="st0" d="M71.6,50.6c1.3,0,2.4-1.1,2.4-2.4s-1.1-2.4-2.4-2.4c-1.3,0-2.4,1.1-2.4,2.4C69.2,49.6,70.3,50.6,71.6,50.6z
		 M71.6,46.9c0.8,0,1.4,0.6,1.4,1.4s-0.6,1.4-1.4,1.4c-0.8,0-1.4-0.6-1.4-1.4C70.2,47.5,70.8,46.9,71.6,46.9z"/>
	<path class="st0" d="M30.8,71.6c0,1.3,1.1,2.4,2.4,2.4s2.4-1.1,2.4-2.4c0-1.3-1.1-2.4-2.4-2.4C31.9,69.2,30.8,70.3,30.8,71.6z
		 M34.6,71.6c0,0.8-0.6,1.4-1.4,1.4s-1.4-0.6-1.4-1.4c0-0.8,0.6-1.4,1.4-1.4C34,70.2,34.6,70.8,34.6,71.6z"/>
	<path class="st0" d="M33.2,19.8c1.3,0,2.4-1.1,2.4-2.4c0-1.1-0.8-2.1-1.9-2.3v-4.9l6.5-3.3v8.2c-1.3,0.3-2.1,1.5-1.8,2.8
		c0.3,1.3,1.5,2.1,2.8,1.8s2.1-1.5,1.8-2.8c-0.2-0.9-0.9-1.6-1.8-1.8V0.5C41.2,0.2,41,0,40.7,0s-0.5,0.2-0.5,0.5v5.3L33,9.5
		c-0.2,0.1-0.3,0.3-0.3,0.4v5.2c-1.3,0.3-2.1,1.5-1.8,2.8C31.1,19,32.1,19.8,33.2,19.8L33.2,19.8z M42.1,17.4c0,0.8-0.6,1.4-1.4,1.4
		s-1.4-0.6-1.4-1.4S40,16,40.7,16c0,0,0,0,0,0C41.5,16,42.1,16.7,42.1,17.4z M33.2,16c0.8,0,1.4,0.6,1.4,1.4s-0.6,1.4-1.4,1.4
		c-0.8,0-1.4-0.6-1.4-1.4c0,0,0,0,0,0C31.8,16.7,32.5,16,33.2,16z"/>
	<path class="st0" d="M48.3,19.8c1.3,0,2.4-1.1,2.4-2.4c0-1.1-0.8-2.1-1.9-2.3V0.5c0-0.3-0.2-0.5-0.5-0.5s-0.5,0.2-0.5,0.5v14.6
		c-1.3,0.3-2.1,1.5-1.8,2.8C46.2,19,47.1,19.8,48.3,19.8z M48.3,16c0.8,0,1.4,0.6,1.4,1.4s-0.6,1.4-1.4,1.4c-0.8,0-1.4-0.6-1.4-1.4
		c0,0,0,0,0,0C46.9,16.7,47.5,16,48.3,16L48.3,16z"/>
	<path class="st0" d="M55.8,19.8c1.3,0,2.4-1.1,2.4-2.4S57.1,15,55.8,15c-1.3,0-2.4,1.1-2.4,2.4C53.4,18.7,54.5,19.8,55.8,19.8z
		 M55.8,16c0.8,0,1.4,0.6,1.4,1.4s-0.6,1.4-1.4,1.4c-0.8,0-1.4-0.6-1.4-1.4c0,0,0,0,0,0C54.4,16.7,55,16,55.8,16L55.8,16z"/>
	<path class="st0" d="M88.5,40.2h-5.3L79.5,33c-0.1-0.2-0.3-0.3-0.4-0.3h-5.2c-0.3-1.3-1.5-2.1-2.8-1.8c-1.3,0.3-2.1,1.5-1.8,2.8
		c0.3,1.3,1.5,2.1,2.8,1.8c0.9-0.2,1.6-0.9,1.8-1.8h4.9l3.3,6.5h-8.2c-0.3-1.3-1.5-2.1-2.8-1.8c-1.3,0.3-2.1,1.5-1.8,2.8
		c0.3,1.3,1.5,2.1,2.8,1.8c0.9-0.2,1.6-0.9,1.8-1.8h14.6c0.3,0,0.5-0.2,0.5-0.5S88.8,40.2,88.5,40.2L88.5,40.2z M71.6,34.6
		c-0.8,0-1.4-0.6-1.4-1.4c0-0.8,0.6-1.4,1.4-1.4c0.8,0,1.4,0.6,1.4,1.4c0,0,0,0,0,0C73,34,72.3,34.6,71.6,34.6z M71.6,42.1
		c-0.8,0-1.4-0.6-1.4-1.4c0-0.8,0.6-1.4,1.4-1.4c0.8,0,1.4,0.6,1.4,1.4c0,0,0,0,0,0C73,41.5,72.3,42.1,71.6,42.1z"/>
	<path class="st0" d="M88.5,55.3H73.9c-0.3-1.3-1.5-2.1-2.8-1.8c-1.3,0.3-2.1,1.5-1.8,2.8c0.3,1.3,1.5,2.1,2.8,1.8
		c0.9-0.2,1.6-0.9,1.8-1.8h14.6c0.3,0,0.5-0.2,0.5-0.5S88.8,55.3,88.5,55.3z M71.6,57.2c-0.8,0-1.4-0.6-1.4-1.4
		c0-0.8,0.6-1.4,1.4-1.4c0.8,0,1.4,0.6,1.4,1.4c0,0,0,0,0,0C73,56.5,72.3,57.2,71.6,57.2z"/>
	<path class="st0" d="M0.5,33.7h14.6c0.3,1.3,1.5,2.1,2.8,1.8c1.3-0.3,2.1-1.5,1.8-2.8s-1.5-2.1-2.8-1.8c-0.9,0.2-1.6,0.9-1.8,1.8
		H0.5c-0.3,0-0.5,0.2-0.5,0.5S0.2,33.7,0.5,33.7z M17.4,31.8c0.8,0,1.4,0.6,1.4,1.4c0,0.8-0.6,1.4-1.4,1.4c-0.8,0-1.4-0.6-1.4-1.4
		c0,0,0,0,0,0C16,32.5,16.7,31.8,17.4,31.8z"/>
	<path class="st0" d="M0.5,48.8h14.6c0.3,1.3,1.5,2.1,2.8,1.8c1.3-0.3,2.1-1.5,1.8-2.8s-1.5-2.1-2.8-1.8c-0.9,0.2-1.6,0.9-1.8,1.8H7
		l3.3-6.5h4.9c0.3,1.3,1.6,2.1,2.8,1.8c1.3-0.3,2.1-1.6,1.8-2.8s-1.6-2.1-2.8-1.8c-0.9,0.2-1.6,0.9-1.8,1.8H9.9
		c-0.2,0-0.4,0.1-0.4,0.3l-3.6,7.2H0.5C0.2,47.8,0,48,0,48.3S0.2,48.8,0.5,48.8z M17.4,39.4c0.8,0,1.4,0.6,1.4,1.4
		c0,0.8-0.6,1.4-1.4,1.4c-0.8,0-1.4-0.6-1.4-1.4c0,0,0,0,0,0C16,40,16.7,39.4,17.4,39.4L17.4,39.4z M17.4,46.9
		c0.8,0,1.4,0.6,1.4,1.4c0,0.8-0.6,1.4-1.4,1.4c-0.8,0-1.4-0.6-1.4-1.4c0,0,0,0,0,0C16,47.5,16.7,46.9,17.4,46.9L17.4,46.9z"/>
	<path class="st0" d="M55.8,89c0.3,0,0.5-0.2,0.5-0.5c0,0,0,0,0,0V73.9c1.3-0.3,2.1-1.5,1.8-2.8c-0.3-1.3-1.5-2.1-2.8-1.8
		c-1.3,0.3-2.1,1.5-1.8,2.8c0.2,0.9,0.9,1.6,1.8,1.8v14.6C55.3,88.8,55.5,89,55.8,89C55.8,89,55.8,89,55.8,89z M54.4,71.6
		c0-0.8,0.6-1.4,1.4-1.4c0.8,0,1.4,0.6,1.4,1.4c0,0.8-0.6,1.4-1.4,1.4c0,0,0,0,0,0C55,73,54.4,72.3,54.4,71.6z"/>
	<path class="st0" d="M48.3,89c0.3,0,0.5-0.2,0.5-0.5c0,0,0,0,0,0V73.9c1.3-0.3,2.1-1.5,1.8-2.8c-0.3-1.3-1.5-2.1-2.8-1.8
		c-1.3,0.3-2.1,1.5-1.8,2.8c0.2,0.9,0.9,1.6,1.8,1.8V82l-6.5-3.3v-4.9c1.3-0.3,2.1-1.6,1.8-2.8s-1.6-2.1-2.8-1.8
		c-1.3,0.3-2.1,1.6-1.8,2.8c0.2,0.9,0.9,1.6,1.8,1.8v5.2c0,0.2,0.1,0.4,0.3,0.4l7.2,3.6v5.3C47.8,88.8,48,89,48.3,89
		C48.3,89,48.3,89,48.3,89z M39.4,71.6c0-0.8,0.6-1.4,1.4-1.4c0.8,0,1.4,0.6,1.4,1.4c0,0.8-0.6,1.4-1.4,1.4c0,0,0,0,0,0
		C40,73,39.4,72.3,39.4,71.6z M46.9,71.6c0-0.8,0.6-1.4,1.4-1.4c0.8,0,1.4,0.6,1.4,1.4c0,0.8-0.6,1.4-1.4,1.4c0,0,0,0,0,0
		C47.5,73,46.9,72.3,46.9,71.6z"/>
	<path class="st0" d="M17.4,53.4c-1.3,0-2.4,1.1-2.4,2.4c0,1.3,1.1,2.4,2.4,2.4s2.4-1.1,2.4-2.4C19.8,54.5,18.7,53.4,17.4,53.4z
		 M17.4,57.2c-0.8,0-1.4-0.6-1.4-1.4c0-0.8,0.6-1.4,1.4-1.4c0.8,0,1.4,0.6,1.4,1.4C18.8,56.5,18.2,57.2,17.4,57.2z"/>
</g>
</svg>
