<?xml version="1.0" encoding="utf-8"?>
<!-- Generator: Adobe Illustrator 21.1.0, SVG Export Plug-In . SVG Version: 6.00 Build 0)  -->
<svg version="1.1" id="Layer_1" xmlns="http://www.w3.org/2000/svg" xmlns:xlink="http://www.w3.org/1999/xlink" x="0px" y="0px"
	 viewBox="0 0 98.8 98.7" style="enable-background:new 0 0 98.8 98.7;" xml:space="preserve">
<style type="text/css">
	.st0{fill:#FFFFFF;}
</style>
<path class="st0" d="M36.6,63.7h24.9c1,0,1.8-0.8,1.8-1.8V37.1c0-1-0.8-1.8-1.8-1.8H36.6c-1,0-1.8,0.8-1.8,1.8V62
	C34.8,63,35.6,63.7,36.6,63.7z M38.3,38.9h21.4v21.4H38.3V38.9z M92.6,51.3c3.4,0,6.2-2.8,6.2-6.2v-7.3c0-1-0.8-1.8-1.8-1.8
	s-1.8,0.8-1.8,1.8v7.3c0,1.5-1.2,2.7-2.7,2.7H74.2v-8.2h10.7c1,0,1.8-0.8,1.8-1.8S85.9,36,84.9,36H74.2v-9.9c0-1-0.8-1.8-1.8-1.8
	h-9.9V14c0-1-0.8-1.8-1.8-1.8S58.9,13,58.9,14v10.5h-8.2V6.2c0-3.4-2.8-6.2-6.2-6.2h-7.3c-1,0-1.8,0.8-1.8,1.8s0.8,1.8,1.8,1.8h7.3
	c1.5,0,2.7,1.2,2.7,2.7v18.2H39V14c0-1-0.8-1.8-1.8-1.8S35.4,13,35.4,14v10.5h-9.9c-1,0-1.8,0.8-1.8,1.8v9.9h-9.9
	c-1,0-1.8,0.8-1.8,1.8s0.8,1.8,1.8,1.8h9.9V48H6.2C2.8,48,0,50.8,0,54.2v7.1c0,1,0.8,1.8,1.8,1.8s1.8-0.8,1.8-1.8V54
	c0-1.5,1.2-2.7,2.7-2.7H24v8.2h-9.9c-1,0-1.8,0.8-1.8,1.8s0.8,1.8,1.8,1.8H24V73c0,1,0.8,1.8,1.8,1.8h9.9v9.9c0,1,0.8,1.8,1.8,1.8
	s1.8-0.8,1.8-1.8v-9.9h8.2v17.7c0,3.4,2.8,6.2,6.2,6.2H61c1,0,1.8-0.8,1.8-1.8S62,95.1,61,95.1h-7.6c-1.5,0-2.7-1.2-2.7-2.7V74.7
	h8.2v9.9c0,1,0.8,1.8,1.8,1.8s1.8-0.8,1.8-1.8v-9.9h9.9c1,0,1.8-0.8,1.8-1.8V63h10.7c1,0,1.8-0.8,1.8-1.8s-0.8-1.8-1.8-1.8H74.2
	v-8.1H92.6z M70.7,71.2H27.4V27.9h43.3V71.2z"/>
</svg>
