<?xml version="1.0" encoding="utf-8"?>
<!-- Generator: Adobe Illustrator 21.1.0, SVG Export Plug-In . SVG Version: 6.00 Build 0)  -->
<svg version="1.1" id="Layer_1" xmlns="http://www.w3.org/2000/svg" xmlns:xlink="http://www.w3.org/1999/xlink" x="0px" y="0px"
	 viewBox="0 0 90 72" style="enable-background:new 0 0 90 72;" xml:space="preserve">
<style type="text/css">
	.st0{fill:#FFFFFF;}
</style>
<g>
	<path class="st0" d="M1.7,12.9h53.2c1,5,5.5,9.1,11,9.1s10-4.1,11-9.1h11.4c0.9,0,1.7-0.6,1.7-1.5s-0.8-1.5-1.7-1.5H77
		C76.3,3.9,71.6,0,65.9,0S55.4,3.9,54.8,9.9H1.7C0.8,9.9,0,10.5,0,11.4S0.8,12.9,1.7,12.9z M65.9,3.1c4.3,0,7.8,3.5,7.8,7.8
		s-3.5,7.8-7.8,7.8s-7.8-3.5-7.8-7.8C58.1,6.6,61.6,3.1,65.9,3.1z"/>
	<path class="st0" d="M88.3,34.9H42.8c-0.7-6-5.4-9.9-11.1-9.9s-10.4,3.9-11.1,9.9H1.7c-0.9,0-1.7,0.6-1.7,1.5s0.8,1.5,1.7,1.5h19
		c1,5,5.5,9.1,11,9.1s10-4.1,11-9.1h45.6c0.9,0,1.7-0.6,1.7-1.5S89.2,34.9,88.3,34.9z M31.7,43.7c-4.3,0-7.8-3.5-7.8-7.8
		c0-4.3,3.5-7.8,7.8-7.8s7.8,3.5,7.8,7.8C39.5,40.2,36,43.7,31.7,43.7z"/>
	<path class="st0" d="M88.3,59.9H65.6c-0.7-6-5.4-9.9-11.1-9.9S44,53.9,43.4,59.9H1.7c-0.9,0-1.7,0.6-1.7,1.5s0.8,1.5,1.7,1.5h41.8
		c1,6,5.5,9.1,11,9.1s10-3.1,11-9.1h22.8c0.9,0,1.7-0.6,1.7-1.5S89.2,59.9,88.3,59.9z M54.5,68.8c-4.3,0-7.8-3.5-7.8-7.8
		s3.5-7.8,7.8-7.8s7.8,3.5,7.8,7.8S58.8,68.8,54.5,68.8z"/>
</g>
</svg>
