<?xml version="1.0" encoding="utf-8"?>
<!-- Generator: Adobe Illustrator 21.1.0, SVG Export Plug-In . SVG Version: 6.00 Build 0)  -->
<svg version="1.1" id="Layer_1" xmlns="http://www.w3.org/2000/svg" xmlns:xlink="http://www.w3.org/1999/xlink" x="0px" y="0px"
	 viewBox="0 0 70.9 69.8" style="enable-background:new 0 0 70.9 69.8;" xml:space="preserve">
<style type="text/css">
	.st0{fill:#FFFFFF;}
</style>
<path class="st0" d="M71,34.2c0,0,0,0.1,0,0.1s0,0.1,0,0.1c0,0,0,0.1,0,0.1s0,0.1,0,0.1c0,0,0,0.1,0,0.1c0,0,0,0.1-0.1,0.1
	c0,0,0,0.1,0,0.1c-0.1,0.2-3.7,5-9.7,9.9C52.9,51.4,44.2,55,35.8,55.2c-0.3,0-0.5,0-0.8,0c-3.5,0-6.9-0.6-10.2-1.6l2-2.3
	c3,0.8,6,1.2,9,1.2C52.3,52,64.9,37.8,67.8,34.2C63,28.4,58,24,53,21l1.8-2.1c5.4,3.3,10.7,8.2,15.8,14.5c0,0,0,0.1,0.1,0.1
	c0,0,0.1,0.1,0.1,0.1c0,0,0,0.1,0.1,0.1c0,0,0,0.1,0,0.1c0,0,0,0.1,0,0.1c0,0,0,0.1,0,0.1C71,34.1,71,34.1,71,34.2z M7.5,69.3
	c-0.3,0.3-0.7,0.5-1,0.5c-0.3,0-0.6-0.1-0.9-0.3c-0.6-0.5-0.6-1.4-0.1-1.9l14-16.1c-6.6-3.3-13-8.7-19.1-16.3c0,0,0,0,0-0.1
	c0,0-0.1-0.1-0.1-0.1c0,0,0-0.1-0.1-0.1c0,0,0-0.1-0.1-0.1s0-0.1,0-0.1c0,0,0-0.1,0-0.1s0-0.1,0-0.1c0,0,0-0.1,0-0.1
	c0,0,0-0.1,0-0.1c0,0,0-0.1,0-0.1c0,0,0-0.1,0-0.1c0,0,0-0.1,0.1-0.1c0,0,0-0.1,0.1-0.1c0,0,0-0.1,0-0.1c0.1-0.2,3.7-5,9.7-9.9
	c8.1-6.5,16.8-10.1,25.2-10.3c5-0.1,9.9,0.9,14.7,3L63.5,0.5c0.5-0.6,1.4-0.6,1.9-0.1c0.5,0.4,0.6,1.2,0.3,1.7L7.7,69
	C7.6,69.1,7.5,69.2,7.5,69.3L7.5,69.3z M40.3,27.2c-1.6-1.1-3.5-1.6-5.4-1.5c-2.3,0.2-4.4,1.2-5.9,2.9c-2.9,3.3-2.8,8.3,0.2,11.4
	L40.3,27.2z M21.3,49.2l6.1-7.1c-4.1-4.2-4.3-10.9-0.4-15.3c2-2.3,4.7-3.6,7.8-3.8c2.7-0.2,5.3,0.6,7.4,2.2l5.8-6.7
	c-4.2-1.7-8.4-2.6-12.7-2.4C18.7,16.4,6.1,30.6,3.1,34.2C9,41.2,15.1,46.2,21.3,49.2z"/>
</svg>
