<?xml version="1.0" encoding="utf-8"?>
<!-- Generator: Adobe Illustrator 21.1.0, SVG Export Plug-In . SVG Version: 6.00 Build 0)  -->
<svg version="1.1" id="Layer_1" xmlns="http://www.w3.org/2000/svg" xmlns:xlink="http://www.w3.org/1999/xlink" x="0px" y="0px"
	 viewBox="0 0 54.1 60" style="enable-background:new 0 0 54.1 60;" xml:space="preserve">
<style type="text/css">
	.st0{fill:#FFFFFF;}
</style>
<title>Cybernetics - Outline - 008 - Brain Implant</title>
<desc>Created with Sketch.</desc>
<g>
	<g transform="translate(0.000000, -1.000000)">
		<path class="st0" d="M1.5,38.4c0.3,0.2,0.7,0.4,1,0.6c0.4,0.2,1.2,0.6,1.2,0.9c0.1,0.3,0,0.7-0.1,1c-0.1,0.3-0.3,0.6-0.4,0.8
			c-0.4,0.6-1,1.7-0.1,2.5c0.2,0.2,0.6,0.5,0.9,0.7c-0.3,0.4-0.4,0.9-0.3,1.4c0.1,0.4,0.3,0.7,0.6,1c0.2,0.2,0.5,0.3,0.7,0.4
			c0.6,0.3,0.8,0.5,0.9,0.8c0.1,0.4,0,0.8-0.1,1.2c-0.1,0.3-0.1,0.5-0.1,0.8c-0.1,0.9,0,1.8,0.3,2.7c0.5,1.9,2.4,3.1,4.4,2.6
			c2.9-0.7,5.7-1.5,8.4-2.5c2.2,1.3,3.7,5.3,4,6.9c0.1,0.4,0.5,0.8,1,0.8h0l25.1-0.1c0.3,0,0.6-0.2,0.8-0.4c0.2-0.3,0.2-0.6,0.2-0.9
			c-0.2-0.7-0.6-1.3-1-1.9c-0.2-0.3-0.4-0.7-0.6-1.1c-0.5-0.9-0.8-1.9-1.1-2.9c-0.6-1.9-1-3.9-1.2-5.9c-0.4-3,0.1-6,1.3-8.8
			c0.7-1.5,1.7-3,2.7-4.3c0.6-0.8,1.2-1.7,1.8-2.5c1.6-2.5,2.4-5.3,2.4-8.2c0.1-2.9-0.3-5.7-1-8.5c-1-3.4-3.1-6.5-6-8.6
			C41.5,2.6,36.2,0.7,30,1c-3.3,0.2-6.5,0.7-9.7,1.4c-4.5,0.9-7.8,2.5-10,4.8c-1.8,1.9-3.1,4.1-4,6.5c-0.4,1.1-0.7,2.2-0.9,3.3
			l-0.1,0.4c-0.2,0.8-0.5,1.5-0.8,2.3c-0.2,0.5-0.4,0.9-0.6,1.4c-0.2,0.5-0.3,1.1-0.3,1.7c0.2,0.9,0.7,1.7,1.5,2.2
			c0.5,0.4,0.8,0.8,0.8,1.1c0,0.1-0.1,0.3-0.2,0.4C4.5,29,3,31.4,1.3,33.6c-0.7,0.9-1.5,1.9-1.3,2.9C0.2,37.3,0.8,38,1.5,38.4z
			 M50,31.2c-0.3,0.4-0.6,0.8-0.8,1.2c-0.4-6.2-2.8-8.9-6.2-10.1l-4.3-4.3c0.1-0.1,0.2-0.1,0.3-0.2l2-2l2.6,2.6
			c0.1,0.1,0.2,0.1,0.4,0.1h2.3l5.9,5.9C52,26.9,51.3,29.2,50,31.2L50,31.2z M20.5,4.8l2.8,2.8c0.1,0.1,0.2,0.1,0.4,0.1h3.3l3.7,3.7
			c-0.3,0.9-0.1,2,0.5,2.8h-4.2L24,11.3c-0.2-0.2-0.5-0.2-0.7,0s-0.2,0.5,0,0.7l3,3c0.1,0.1,0.2,0.1,0.4,0.1H32l2.7,2.7
			c0.1,0.1,0.2,0.1,0.3,0.2H24.4C20.2,13.9,20.5,5.9,20.5,4.8z M34.8,9.5c0.2-0.2,0.4-0.3,0.7-0.3c0.3,0,0.5,0.1,0.7,0.3l0,0
			l3.5,3.5c0.2,0.2,0.3,0.4,0.3,0.7s-0.1,0.5-0.3,0.7l-2.1,2.1c-0.4,0.4-1,0.4-1.4,0L32.7,13c-0.4-0.4-0.4-1,0-1.4L34.8,9.5z
			 M38,8.5V5.8c0-0.1-0.1-0.3-0.1-0.4L36,3.5c2.5,0.6,4.8,1.6,7,3L39.5,10L38,8.5z M36.5,19.1c0.2,0,0.4-0.1,0.5-0.3
			c0.3,0,0.6-0.1,0.8-0.1l3.2,3.2c-1.8-0.3-3.7-0.5-5.5-0.6c-2.1-0.1-4.3-0.4-6.4-0.7c-1.2-0.2-2.4-0.7-3.5-1.4L36.5,19.1z
			 M51.2,16.1c0.6,2.3,0.9,4.6,1,7l-5.4-5.4c-0.1-0.1-0.2-0.1-0.4-0.1h-2.3l-2.5-2.5c0.2-0.4,0.3-0.9,0.3-1.4c0-0.2,0-0.4-0.1-0.5
			h3.3l2.3,2.3c0.2,0.2,0.5,0.2,0.7,0c0.2-0.2,0.2-0.5,0-0.7l-2.5-2.5c-0.1-0.1-0.2-0.1-0.4-0.1h-3.9c-0.1-0.2-0.3-0.4-0.4-0.6
			l-0.9-0.9l3.6-3.6c0,0,0,0,0,0c0.7,0.5,1.4,1,2.1,1.5C48.4,10.4,50.3,13.1,51.2,16.1L51.2,16.1z M30.1,3c1.4-0.1,2.7,0,4.1,0.2
			L37,6v1.7c-1.1-0.6-2.5-0.5-3.5,0.3l-2.6-2.6c-0.2-0.2-0.5-0.2-0.7,0s-0.2,0.5,0,0.7l2.6,2.6l-1.5,1.5c-0.1,0.1-0.2,0.2-0.2,0.3
			l-3.6-3.6c-0.1-0.1-0.2-0.1-0.4-0.1h-3.3l-2.5-2.5C24.3,3.6,27.2,3.2,30.1,3L30.1,3z M2.9,34.8c1.8-2.3,3.3-4.8,4.6-7.4
			C7.7,27,7.9,26.5,7.9,26c-0.1-1-0.6-1.9-1.5-2.5c-0.4-0.4-0.8-0.7-0.8-1c0-0.2,0.1-0.5,0.2-0.7c0.2-0.4,0.4-0.9,0.5-1.3
			c0.4-0.8,0.7-1.7,1-2.6l0.1-0.4c0.2-1,0.5-2,0.8-3c0.8-2.2,2-4.2,3.6-5.9c1.9-1.8,4.2-3.1,6.8-3.7c-0.1,2.5-0.1,15.7,10.2,17.6
			c2.2,0.4,4.4,0.6,6.6,0.7c7.4,0.6,11.9,0.9,11.8,11.5c0,0.1,0,0.2,0.1,0.3c-2.8,3.8-4,8.5-3.4,13.1c0.2,2.1,0.6,4.2,1.3,6.3
			c0.3,1.1,0.7,2.1,1.2,3.1c0.2,0.4,0.5,0.9,0.8,1.3c0,0,0,0.1,0.1,0.1L24.5,59c-0.7-2.4-1.9-4.6-3.5-6.4c0.3-0.1,0.5-0.2,0.7-0.3
			c0.7-0.3,1.3-0.5,1.6-0.5c4.3-1.3,6.4-3.3,6.4-5.8c0-0.6-0.5-1-1-1c-0.6,0-1,0.5-1,1c0,1-0.8,2.5-5,3.8c-0.3,0.1-0.9,0.3-1.7,0.6
			c-0.7,0.3-1.6,0.6-2.6,0.9l0,0c-2.8,1-5.7,1.9-8.6,2.6c-0.9,0.2-1.8-0.4-2.1-1.3c-0.2-0.6-0.3-1.2-0.2-1.8c0-0.2,0.1-0.4,0.1-0.6
			C8,49.5,8,48.8,7.8,48.1c-0.3-0.9-1-1.7-1.8-2c-0.1,0-0.1-0.1-0.2-0.1c0.1-0.2,0.2-0.4,0.4-0.6c0.2-0.2,0.2-0.5,0.2-0.8
			c0-0.3-0.2-0.5-0.4-0.7c-0.2-0.2-0.8-0.6-1.2-0.9c0.1-0.1,0.1-0.2,0.2-0.3c0.2-0.3,0.3-0.6,0.5-0.9c0.3-0.7,0.4-1.5,0.3-2.2
			c-0.2-1.2-1.4-1.8-2.3-2.3c-0.3-0.1-0.6-0.3-0.8-0.5c-0.2-0.1-0.4-0.3-0.6-0.5C2,36.1,2.2,35.7,2.9,34.8z"/>
		<path class="st0" d="M34,41.3c0.2,0.1,0.5,0.1,0.7,0.1c0.9,0,1.7-0.5,2.2-1.2c0.3-0.4,0.5-0.7,0.7-1.1c0.2-0.3,0.3-0.7,0.6-1
			c0.5-0.5,1-1,1.5-1.5l0.1-0.1c0.8-0.7,1.4-1.6,1.7-2.7c0.1-0.3,0.2-0.6,0.2-1c0.4-2.2,0-5.1-2-6.3c-1.4-0.8-3.2-0.8-4.6,0.2
			c-0.2,0.2-0.3,0.5-0.1,0.7s0.5,0.3,0.7,0.2c1.1-0.7,2.4-0.7,3.5-0.1c1.6,1,1.9,3.4,1.6,5.3c-0.1,0.3-0.1,0.6-0.2,0.8
			c-0.2,0.9-0.7,1.6-1.4,2.2L39,35.9c-0.6,0.5-1.2,1-1.7,1.6c-0.3,0.4-0.5,0.7-0.7,1.1c-0.2,0.3-0.3,0.7-0.6,1
			c-0.4,0.6-1.1,0.9-1.8,0.8c-0.7-0.2-1.2-1.1-1.5-1.8c-0.4-0.8-0.5-1.6-0.5-2.5c0-0.3-0.2-0.5-0.5-0.5c-0.1,0-0.3,0-0.4,0.1
			c-0.1,0.1-0.2,0.2-0.2,0.3c0,1,0.2,2,0.6,3C32.2,39.9,33,40.8,34,41.3L34,41.3z"/>
	</g>
</g>
</svg>
