<?xml version="1.0" encoding="utf-8"?>
<!-- Generator: Adobe Illustrator 21.1.0, SVG Export Plug-In . SVG Version: 6.00 Build 0)  -->
<svg version="1.1" id="Layer_1" xmlns="http://www.w3.org/2000/svg" xmlns:xlink="http://www.w3.org/1999/xlink" x="0px" y="0px"
	 viewBox="0 0 84.4 99.2" style="enable-background:new 0 0 84.4 99.2;" xml:space="preserve">
<style type="text/css">
	.st0{fill:#FFFFFF;}
</style>
<path class="st0" d="M55.3,40.5c0.7,0.7,0.7,1.8,0,2.5L38.6,59.5c-0.3,0.3-0.8,0.5-1.2,0.5s-0.9-0.2-1.2-0.5l-7-7
	c-0.7-0.7-0.7-1.8,0-2.5s1.8-0.7,2.5,0l5.8,5.8L53,40.4C53.5,39.8,54.6,39.8,55.3,40.5z M42.2,99.2C18.9,99.2,0,80.2,0,57V19.5
	c0-0.7,0.4-1.3,1.1-1.6L41.5,1c0.4-0.2,0.9-0.2,1.3,0l40.5,16.9c0.7,0.3,1.1,0.9,1.1,1.6V57C84.4,80.2,65.5,99.2,42.2,99.2z
	 M80.9,56.9V20.6L42.2,4.5L3.5,20.6v36.3c0,21.4,17.4,38.7,38.7,38.7S80.9,78.3,80.9,56.9z"/>
</svg>
