<?xml version="1.0" encoding="utf-8"?>
<!-- Generator: Adobe Illustrator 21.1.0, SVG Export Plug-In . SVG Version: 6.00 Build 0)  -->
<svg version="1.1" id="Layer_1" xmlns="http://www.w3.org/2000/svg" xmlns:xlink="http://www.w3.org/1999/xlink" x="0px" y="0px"
	 viewBox="0 0 54 46" style="enable-background:new 0 0 54 46;" xml:space="preserve">
<style type="text/css">
	.st0{fill:#FFFFFF;}
</style>
<g>
	<path class="st0" d="M46.4,22l7.3-7.3c0.4-0.4,0.4-1,0-1.4s-1-0.4-1.4,0L45,20.6l-7.3-7.3c-0.4-0.4-1-0.4-1.4,0s-0.4,1,0,1.4
		l7.3,7.3l-7.3,7.3c-0.4,0.4-0.4,1,0,1.4c0.2,0.2,0.5,0.3,0.7,0.3s0.5-0.1,0.7-0.3l7.3-7.3l7.3,7.3c0.2,0.2,0.5,0.3,0.7,0.3
		s0.5-0.1,0.7-0.3c0.4-0.4,0.4-1,0-1.4L46.4,22z"/>
	<path class="st0" d="M28.4,0.4c-1-0.6-2.1-0.5-3.1,0c0,0-0.1,0.1-0.1,0.1L11.6,12H1c-0.6,0-1,0.4-1,1v19c0,0.3,0.1,0.5,0.3,0.7
		S0.7,33,1,33l10.6,0l13.5,12.4c0,0,0.1,0.1,0.2,0.1c0.5,0.3,1,0.4,1.6,0.4c0.5,0,1-0.1,1.5-0.4c1-0.6,1.6-1.6,1.6-2.8V3.2
		C30,2,29.4,1,28.4,0.4z M28,42.8c0,0.4-0.2,0.8-0.6,1c-0.2,0.1-0.5,0.3-1,0L13,31.6V27c0-0.6-0.4-1-1-1s-1,0.4-1,1v4l-9,0V14h9v4
		c0,0.6,0.4,1,1,1s1-0.4,1-1v-4.5L26.4,2.1c0.5-0.2,0.9-0.1,1,0c0.4,0.2,0.6,0.6,0.6,1V42.8z"/>
</g>
</svg>
